<svg width="110" height="110" viewBox="0 0 110 110" fill="none" xmlns="http://www.w3.org/2000/svg">
<rect x="7" y="91.8" width="9.99994" height="6.23587" transform="rotate(-90 7 91.9999)" fill="#363636"/>
<rect x="97" y="92.2" width="10" height="6" transform="rotate(-90 97 92)" fill="#363636"/>
<path d="M46.3398 21C50.1888 14.3333 59.8113 14.3333 63.6603 21L101.765 87C105.614 93.6667 100.803 102 93.1051 102H16.8949C9.19687 102 4.38563 93.6667 8.23463 87L46.3398 21Z" fill="#363636"/>
<path d="M46.3398 21C50.1888 14.3333 59.8113 14.3333 63.6603 21L101.765 87C105.614 93.6667 100.803 102 93.1051 102H16.8949C9.19687 102 4.38563 93.6667 8.23463 87L46.3398 21Z" fill="#363636"/>
<path d="M46.3398 12C50.1888 5.33332 59.8113 5.33333 63.6603 12L101.765 78C105.614 84.6667 100.803 93 93.1051 93H16.8949C9.19687 93 4.38563 84.6667 8.23463 78L46.3398 12Z" fill="#E9AD2E"/>
<path d="M50.5802 64.0054C50.5802 62.5886 50.6485 61.4144 50.7851 60.4827C50.9217 59.5317 51.1657 58.7068 51.517 58.0081C51.8684 57.29 52.3758 56.5913 53.0395 55.912C53.7226 55.2133 54.6107 54.4078 55.7037 53.4956C56.8747 52.5058 57.8116 51.5353 58.5143 50.5843C59.2364 49.6139 59.7634 48.6531 60.0952 47.7021C60.4465 46.7317 60.6222 45.7418 60.6222 44.7326C60.6222 42.8887 60.1147 41.4622 59.0998 40.4529C58.1044 39.4437 56.6893 38.9391 54.8546 38.9391C53.2932 38.9391 51.9562 39.3661 50.8437 40.22C49.7507 41.074 49.2042 42.3453 49.2042 44.0339H42.0606L42.002 43.8592C41.963 41.6078 42.49 39.6766 43.583 38.0657C44.676 36.4353 46.1886 35.1835 48.1209 34.3101C50.0727 33.4367 52.3173 33 54.8546 33C58.9924 33 62.2129 34.0287 64.516 36.086C66.8387 38.1239 68 40.9382 68 44.5288C68 46.2173 67.6877 47.77 67.0631 49.1869C66.4581 50.5843 65.5895 51.9429 64.4575 53.2627C63.3254 54.5631 61.9689 55.9411 60.388 57.3968C59.6853 58.0372 59.1486 58.6486 58.7777 59.2309C58.4264 59.8131 58.1922 60.473 58.0751 61.2106C57.9775 61.9287 57.9287 62.8603 57.9287 64.0054H50.5802ZM50.5216 76V69.1293H58.0165V76H50.5216Z" fill="white"/>
</svg>
